<svg width="151" height="57" viewBox="0 0 151 57" fill="none" xmlns="http://www.w3.org/2000/svg">
<rect x="4.94922" y="6.70605" width="56.9356" height="50.2938" rx="9.38817" fill="#6C5FBC"/>
<rect x="1.35713" y="1.35713" width="54.2213" height="47.5795" rx="8.03104" fill="#DBD9EE" stroke="#6C5FBC" stroke-width="2.71427"/>
<path d="M43.9453 16.2339L13.0961 16.0975" stroke="#6C5FBC" stroke-width="2.80765" stroke-linecap="round" stroke-linejoin="round"/>
<path d="M43.9307 22.4104L37.0671 22.3758C34.2282 22.3615 31.9311 19.584 31.9402 16.1767C31.9494 12.7694 34.2614 10.0151 37.1003 10.0294L43.9639 10.064" stroke="#6C5FBC" stroke-width="2.80765" stroke-linecap="round" stroke-linejoin="round"/>
<path d="M23.389 35.996L14.4236 35.8907C13.689 35.887 13.0732 35.1627 13.0589 34.2812L12.9983 31.9571C12.9841 31.0355 13.604 30.2573 14.372 30.2612L23.2372 30.3659L23.389 35.996Z" stroke="#6C5FBC" stroke-width="2.80765" stroke-linecap="round" stroke-linejoin="round"/>
<path d="M37.4686 39.3439L24.7966 39.18C24.062 39.1763 23.4462 38.4523 23.4318 37.571L23.2676 30.3406L43.8535 30.6044L43.8677 31.5257C43.9728 35.892 41.0916 39.4022 37.4686 39.3439Z" stroke="#6C5FBC" stroke-width="2.80765" stroke-linecap="round" stroke-linejoin="round"/>
<path d="M93.3605 28.8702C93.3605 29.4407 93.3224 29.9541 93.2464 30.4105H81.6939C81.789 31.5515 82.1884 32.4453 82.892 33.0918C83.5956 33.7384 84.4608 34.0616 85.4877 34.0616C86.971 34.0616 88.0264 33.4246 88.6539 32.1505H92.9611C92.5047 33.6718 91.63 34.9269 90.3369 35.9157C89.0438 36.8856 87.4559 37.3705 85.5733 37.3705C84.052 37.3705 82.6828 37.0377 81.4657 36.3721C80.2677 35.6875 79.3264 34.7272 78.6418 33.4912C77.9762 32.2551 77.6435 30.8289 77.6435 29.2125C77.6435 27.5771 77.9762 26.1413 78.6418 24.9053C79.3074 23.6692 80.2392 22.7184 81.4372 22.0528C82.6352 21.3873 84.0139 21.0545 85.5733 21.0545C87.0756 21.0545 88.4162 21.3777 89.5952 22.0243C90.7933 22.6709 91.7156 23.5931 92.3621 24.7912C93.0277 25.9702 93.3605 27.3299 93.3605 28.8702ZM89.2244 27.7292C89.2054 26.7023 88.8346 25.8846 88.112 25.2761C87.3893 24.6486 86.5051 24.3348 85.4592 24.3348C84.4703 24.3348 83.6336 24.639 82.949 25.2476C82.2834 25.8371 81.8746 26.6643 81.7225 27.7292H89.2244ZM95.2484 29.1554C95.2484 27.5581 95.5622 26.1413 96.1897 24.9053C96.8363 23.6692 97.7015 22.7184 98.7855 22.0528C99.8884 21.3873 101.115 21.0545 102.465 21.0545C103.644 21.0545 104.671 21.2922 105.546 21.7676C106.44 22.243 107.153 22.842 107.685 23.5646V21.3112H111.707V37.1138H107.685V34.8033C107.172 35.5449 106.459 36.163 105.546 36.6574C104.652 37.1328 103.616 37.3705 102.437 37.3705C101.105 37.3705 99.8884 37.0282 98.7855 36.3436C97.7015 35.659 96.8363 34.6987 96.1897 33.4626C95.5622 32.2076 95.2484 30.7718 95.2484 29.1554ZM107.685 29.2125C107.685 28.2426 107.495 27.4154 107.115 26.7308C106.734 26.0272 106.221 25.4948 105.574 25.1335C104.928 24.7531 104.234 24.563 103.492 24.563C102.75 24.563 102.066 24.7436 101.438 25.1049C100.811 25.4663 100.297 25.9987 99.8979 26.7023C99.5176 27.3869 99.3274 28.2046 99.3274 29.1554C99.3274 30.1062 99.5176 30.943 99.8979 31.6656C100.297 32.3692 100.811 32.9112 101.438 33.2915C102.085 33.6718 102.769 33.862 103.492 33.862C104.234 33.862 104.928 33.6813 105.574 33.32C106.221 32.9397 106.734 32.4072 107.115 31.7226C107.495 31.019 107.685 30.1823 107.685 29.2125ZM120.257 24.5915V32.2361C120.257 32.7685 120.38 33.1584 120.628 33.4056C120.894 33.6338 121.331 33.7479 121.94 33.7479H123.794V37.1138H121.284C117.918 37.1138 116.235 35.4784 116.235 32.2076V24.5915H114.352V21.3112H116.235V17.4033H120.257V21.3112H123.794V24.5915H120.257ZM130.66 16.0056V37.1138H126.666V16.0056H130.66ZM149.723 21.3112L139.939 44.5872H135.689L139.112 36.7144L132.78 21.3112H137.258L141.337 32.3502L145.473 21.3112H149.723Z" fill="#6C5FBC"/>
</svg>
