<svg aria-hidden="true" style="position: absolute; width: 0; height: 0; overflow: hidden;" version="1.1" xmlns="http://www.w3.org/2000/svg" xmlns:xlink="http://www.w3.org/1999/xlink">
    <defs>
        <symbol id="icon-Star" viewBox="0 0 192 32">
            <path d="M13.916 1.484c0.642-1.98 3.44-1.98 4.082 0l2.296 7.064c0.288 0.884 1.112 1.484 2.040 1.484h7.43c2.080 0 2.944 2.66 1.262 3.882l-6.010 4.366c-0.539 0.395-0.885 1.025-0.885 1.737 0 0.237 0.038 0.465 0.11 0.679l-0.004-0.015 2.296 7.066c0.642 1.978-1.62 3.62-3.302 2.4l-6.010-4.368c-0.349-0.256-0.788-0.41-1.262-0.41s-0.913 0.154-1.268 0.415l0.006-0.004-6.010 4.368c-1.682 1.22-3.946-0.422-3.302-2.4l2.294-7.066c0.067-0.198 0.105-0.426 0.105-0.663 0-0.711-0.346-1.342-0.879-1.732l-0.006-0.004-6.010-4.366c-1.68-1.22-0.816-3.882 1.262-3.882h7.43c0.93 0 1.754-0.6 2.040-1.484l2.296-7.064zM53.83 1.484c0.642-1.98 3.44-1.98 4.082 0l2.296 7.064c0.288 0.884 1.112 1.484 2.042 1.484h7.428c2.080 0 2.944 2.66 1.262 3.882l-6.010 4.366c-0.539 0.395-0.885 1.025-0.885 1.737 0 0.237 0.038 0.465 0.109 0.679l-0.004-0.015 2.296 7.066c0.642 1.978-1.62 3.62-3.302 2.4l-6.010-4.368c-0.349-0.256-0.788-0.41-1.262-0.41s-0.913 0.154-1.268 0.415l0.006-0.004-6.010 4.368c-1.682 1.22-3.946-0.422-3.304-2.4l2.296-7.066c0.067-0.198 0.105-0.426 0.105-0.663 0-0.711-0.346-1.342-0.879-1.732l-0.006-0.004-6.010-4.366c-1.68-1.22-0.816-3.882 1.262-3.882h7.43c0.93 0 1.754-0.6 2.040-1.484l2.296-7.064zM93.744 1.484c0.644-1.98 3.44-1.98 4.082 0l2.296 7.064c0.288 0.884 1.112 1.484 2.042 1.484h7.43c2.080 0 2.942 2.66 1.26 3.882l-6.010 4.366c-0.539 0.395-0.885 1.025-0.885 1.737 0 0.237 0.038 0.465 0.109 0.679l-0.004-0.015 2.296 7.066c0.642 1.978-1.62 3.62-3.302 2.4l-6.010-4.368c-0.349-0.256-0.788-0.41-1.262-0.41s-0.913 0.154-1.268 0.415l0.006-0.004-6.010 4.368c-1.682 1.22-3.946-0.422-3.302-2.4l2.294-7.066c0.067-0.198 0.105-0.426 0.105-0.663 0-0.711-0.346-1.342-0.879-1.732l-0.006-0.004-6.010-4.366c-1.68-1.22-0.816-3.882 1.262-3.882h7.43c0.93 0 1.754-0.6 2.040-1.484l2.296-7.064zM133.662 1.484c0.644-1.98 3.44-1.98 4.082 0l2.296 7.064c0.288 0.884 1.112 1.484 2.042 1.484h7.428c2.080 0 2.944 2.66 1.262 3.882l-6.010 4.366c-0.539 0.395-0.885 1.025-0.885 1.737 0 0.237 0.038 0.465 0.109 0.679l-0.004-0.015 2.296 7.066c0.642 1.978-1.62 3.62-3.302 2.4l-6.010-4.368c-0.349-0.256-0.788-0.41-1.262-0.41s-0.913 0.154-1.268 0.415l0.006-0.004-6.010 4.368c-1.682 1.22-3.946-0.422-3.302-2.4l2.294-7.066c0.067-0.198 0.105-0.426 0.105-0.663 0-0.711-0.346-1.342-0.879-1.732l-0.006-0.004-6.010-4.366c-1.68-1.22-0.816-3.882 1.262-3.882h7.43c0.93 0 1.754-0.6 2.040-1.484l2.296-7.064zM173.576 1.484c0.644-1.98 3.44-1.98 4.082 0l2.296 7.064c0.288 0.884 1.112 1.484 2.042 1.484h7.43c2.080 0 2.942 2.66 1.26 3.882l-6.010 4.366c-0.539 0.395-0.885 1.025-0.885 1.737 0 0.237 0.038 0.465 0.109 0.679l-0.004-0.015 2.296 7.066c0.642 1.978-1.62 3.62-3.302 2.4l-6.010-4.368c-0.349-0.256-0.788-0.41-1.262-0.41s-0.913 0.154-1.268 0.415l0.006-0.004-6.010 4.368c-1.682 1.22-3.946-0.422-3.302-2.4l2.294-7.066c0.067-0.198 0.105-0.426 0.105-0.663 0-0.711-0.346-1.342-0.879-1.732l-0.006-0.004-6.008-4.366c-1.684-1.22-0.82-3.882 1.26-3.882h7.43c0.93 0 1.754-0.6 2.040-1.484l2.296-7.064z"></path>
        </symbol>
        <symbol id="icon-Illustration-1" viewBox="0 0 48 32">
            <path stroke-linejoin="round" stroke-linecap="round" stroke-miterlimit="1.5" stroke-width="3.0286" d="M3.469 14.724c4.119-4.206 9.169-4.907 14.291-5.379 6.393-0.589 12.899-0.819 17.847-7.060"></path>
            <path stroke-linejoin="round" stroke-linecap="round" stroke-miterlimit="1.5" stroke-width="3.0286" d="M1.87 26.547c3.754-5.341 9.213-8.497 15.661-9.208 3.374-0.372 6.795-0.002 10.148-0.639 7.553-1.436 14.57-6.021 17.86-13.112"></path>
            <path stroke-linejoin="round" stroke-linecap="round" stroke-miterlimit="1.5" stroke-width="3.0286" d="M34.882 21.965c-2.501 1.604-5.215 2.825-8.195 3.175-5.935 0.697-12.152-0.228-16.659 4.574"></path>
        </symbol>
        <symbol id="icon-Illustration-2" viewBox="0 0 34 32">
            <path stroke-linejoin="round" stroke-linecap="round" stroke-miterlimit="1.5" stroke-width="2.2919" d="M23.643 26.914c2.503-5.595 4.359-11.4 6.603-17.086"></path>
            <path stroke-linejoin="round" stroke-linecap="round" stroke-miterlimit="1.5" stroke-width="2.2919" d="M6.857 30.271c6.835-7.314 12.977-15.487 18.622-23.735"></path>
            <path stroke-linejoin="round" stroke-linecap="round" stroke-miterlimit="1.5" stroke-width="2.2919" d="M1.414 13.696c6.503-2.214 14.627-8.133 20.616-11.966"></path>
        </symbol>
        <symbol id="icon-arrow-right" viewBox="0 0 32 32">
            <path d="M19.414 27.414l10-10c0.781-0.781 0.781-2.047 0-2.828l-10-10c-0.781-0.781-2.047-0.781-2.828 0s-0.781 2.047 0 2.828l6.586 6.586h-19.172c-1.105 0-2 0.895-2 2s0.895 2 2 2h19.172l-6.586 6.586c-0.39 0.39-0.586 0.902-0.586 1.414s0.195 1.024 0.586 1.414c0.781 0.781 2.047 0.781 2.828 0z"></path>
        </symbol>
        <symbol id="icon-Vector-14" viewBox="0 0 89 32">
            <path d="M88.399 3.224c0.119-0.365-0.081-0.757-0.446-0.876s-0.757 0.081-0.876 0.446l1.322 0.43zM70.406 20.008v0zM49.801 8.519v0zM55.973 1.052v0zM62.524 6.499v0zM45.045 24.956v0zM26.277 13.117v0zM30.741 7.364v0zM17.22 31.091v0zM0.72 20.836l0.158-0.677c-0.247-0.058-0.506 0.024-0.675 0.213s-0.222 0.455-0.139 0.694l0.656-0.23zM6.805 22.967c0.374 0.087 0.748-0.145 0.835-0.519s-0.145-0.748-0.519-0.835l-0.315 1.354zM2.29 27.418c0.127 0.362 0.524 0.553 0.886 0.426s0.553-0.524 0.426-0.886l-1.312 0.46zM87.738 3.009c-0.661-0.215-0.661-0.215-0.661-0.216s0-0 0 0 0 0.001-0.001 0.001-0.001 0.003-0.002 0.006-0.005 0.016-0.009 0.029c-0.009 0.026-0.023 0.066-0.041 0.118-0.037 0.105-0.093 0.262-0.171 0.464-0.154 0.403-0.388 0.985-0.708 1.691-0.641 1.413-1.621 3.315-2.981 5.274-2.728 3.933-6.917 8.006-12.867 8.945l0.217 1.373c6.487-1.023 10.964-5.449 13.792-9.525 1.419-2.045 2.439-4.025 3.106-5.493 0.333-0.735 0.578-1.343 0.741-1.77 0.081-0.213 0.142-0.382 0.183-0.498 0.020-0.058 0.036-0.103 0.046-0.134 0.005-0.016 0.009-0.028 0.012-0.036 0.002-0.004 0.003-0.008 0.004-0.010 0.001-0.001 0.001-0.002 0.001-0.003s0-0.001 0-0.001 0.001-0.001-0.66-0.216zM70.297 19.321c-4.646 0.733-9.63-0.123-13.441-2.117-3.821-1.999-6.332-5.059-6.36-8.69l-1.39 0.011c0.034 4.341 3.035 7.781 7.106 9.911 4.080 2.135 9.367 3.037 14.302 2.259l-0.217-1.373zM50.496 8.513c-0.008-1.064 0.432-2.723 1.381-4.145 0.94-1.408 2.315-2.496 4.144-2.623l-0.096-1.387c-2.387 0.165-4.107 1.594-5.204 3.238-1.088 1.631-1.626 3.559-1.615 4.928l1.39-0.011zM56.021 1.745c1.73-0.12 2.968 0.563 3.893 1.551 0.946 1.010 1.559 2.336 1.957 3.439l1.307-0.472c-0.422-1.169-1.112-2.703-2.249-3.917-1.158-1.236-2.785-2.141-5.004-1.988l0.096 1.387zM61.871 6.735c1.587 4.395-0.105 8.454-3.519 11.622-3.425 3.179-8.507 5.369-13.383 5.907l0.153 1.382c5.141-0.568 10.51-2.867 14.177-6.27 3.678-3.414 5.716-8.030 3.88-13.114l-1.307 0.472zM44.968 24.265c-4.182 0.462-8.601-0.317-12.012-2.234-3.396-1.909-5.755-4.917-5.986-8.954l-1.388 0.079c0.264 4.614 2.983 8.001 6.693 10.087 3.696 2.078 8.414 2.893 12.845 2.404l-0.153-1.382zM26.971 13.077c-0.073-1.266 0.232-2.337 0.864-3.173 0.633-0.838 1.641-1.5 3.078-1.866l-0.342-1.347c-1.679 0.427-2.984 1.237-3.845 2.375-0.861 1.14-1.231 2.549-1.143 4.091l1.388-0.079zM30.913 8.038c1.314-0.334 2.377-0.067 3.275 0.579 0.926 0.666 1.708 1.762 2.347 3.126l1.259-0.589c-0.69-1.474-1.6-2.806-2.794-3.665-1.222-0.88-2.706-1.235-4.429-0.797l0.342 1.347zM36.534 11.742c2.137 4.568-0.123 9.355-4.376 13.036-4.243 3.672-10.219 5.992-14.882 5.62l-0.11 1.386c5.123 0.408 11.453-2.105 15.902-5.955 4.439-3.841 7.258-9.265 4.726-14.676l-1.259 0.589zM17.275 30.398c-3.619-0.288-7.604-2.733-10.756-5.211-1.559-1.226-2.884-2.434-3.819-3.335-0.467-0.451-0.836-0.824-1.087-1.084-0.126-0.13-0.222-0.231-0.286-0.3-0.032-0.034-0.056-0.060-0.072-0.077-0.008-0.009-0.014-0.015-0.018-0.019-0.002-0.002-0.003-0.003-0.004-0.004s-0.001-0.001-0.001-0.001-0-0-0-0 0 0-0.513 0.469-0.513 0.469-0.513 0.469 0 0 0.001 0.001 0.001 0.001 0.002 0.002 0.003 0.003 0.006 0.006 0.012 0.013 0.021 0.022c0.018 0.019 0.044 0.048 0.079 0.084 0.069 0.073 0.17 0.179 0.3 0.314 0.261 0.27 0.641 0.655 1.121 1.118 0.959 0.925 2.319 2.166 3.925 3.428 3.178 2.497 7.444 5.18 11.505 5.503l0.11-1.386zM0.562 21.513l6.243 1.454 0.315-1.354-6.243-1.454-0.315 1.354zM0.064 21.066l2.226 6.352 1.312-0.46-2.226-6.352-1.312 0.46z"></path>
        </symbol>
        <symbol id="icon-Star-little" viewBox="0 0 31 32">
            <path d="M18.962 25.703c2.020 1.105 3.796-0.234 3.409-2.579l-0.693-4.21 2.938-2.981c1.634-1.658 0.959-3.831-1.302-4.173l-4.060-0.614-1.807-3.811c-1.012-2.135-3.209-2.158-4.223-0.019l-1.816 3.83-4.060 0.614c-2.258 0.342-2.938 2.512-1.302 4.173l2.938 2.981-0.694 4.21c-0.386 2.341 1.387 3.686 3.409 2.579l3.631-1.988 3.631 1.988z"></path>
        </symbol>
        <symbol id="icon-Bookmark" viewBox="0 0 32 32">
            <path fill="#dbd9ee" style="fill: var(--color1, #dbd9ee)" d="M31.428 15.807c0 8.639-7.004 15.643-15.643 15.643s-15.643-7.004-15.643-15.643c0-8.639 7.004-15.643 15.643-15.643s15.643 7.004 15.643 15.643z"></path>
            <path fill="#6c5fbc" style="fill: var(--color2, #6c5fbc)" d="M19.213 8.495c-2.265-0.38-4.589-0.38-6.853 0-0.827 0.139-1.486 0.774-1.652 1.597-0.76 3.773-0.801 7.655-0.122 11.443l0.277 1.542c0.085 0.476 0.665 0.666 1.015 0.333l3.338-3.171c0.32-0.304 0.822-0.304 1.143 0l3.338 3.171c0.35 0.333 0.93 0.143 1.015-0.333l0.277-1.542c0.679-3.788 0.638-7.671-0.122-11.443-0.166-0.824-0.825-1.459-1.652-1.597z"></path>
        </symbol>
        <symbol id="icon-plus" viewBox="0 0 24 24">
            <path d="M5 13h6v6c0 0.552 0.448 1 1 1s1-0.448 1-1v-6h6c0.552 0 1-0.448 1-1s-0.448-1-1-1h-6v-6c0-0.552-0.448-1-1-1s-1 0.448-1 1v6h-6c-0.552 0-1 0.448-1 1s0.448 1 1 1z"></path>
        </symbol>
        <symbol id="icon-wallet" viewBox="0 0 24 24">
            <path d="M17 7h-11c-1.654 0-3 1.346-3 3v7c0 1.654 1.346 3 3 3h11c1.654 0 3-1.346 3-3v-7c0-1.654-1.346-3-3-3zM18 17c0 0.552-0.448 1-1 1h-11c-0.552 0-1-0.448-1-1v-4h13v4zM18 11h-13v-1c0-0.552 0.448-1 1-1h11c0.552 0 1 0.448 1 1v1z"></path>
            <path d="M14 16h2c0.276 0 0.5-0.224 0.5-0.5s-0.224-0.5-0.5-0.5h-2c-0.276 0-0.5 0.224-0.5 0.5s0.224 0.5 0.5 0.5z"></path>
        </symbol>
        <symbol id="icon-money" viewBox="0 0 32 32">
            <path d="M0 25v-18h32v18h-32zM2 8.938v14.062h28v-14.062h-28zM21 16c0-3.313-2.238-6-5-6h13v12h-13c2.762 0 5-2.687 5-6zM25 18c0.828 0 1.5-0.896 1.5-2s-0.672-2-1.5-2-1.5 0.896-1.5 2 0.672 2 1.5 2zM18.118 13.478c-0.015 0.055-0.036 0.094-0.062 0.119-0.027 0.025-0.063 0.037-0.109 0.037s-0.118-0.028-0.219-0.086c-0.1-0.059-0.223-0.121-0.368-0.189-0.146-0.068-0.314-0.13-0.506-0.187s-0.402-0.083-0.631-0.083c-0.18 0-0.336 0.021-0.469 0.065s-0.245 0.104-0.334 0.18c-0.090 0.077-0.156 0.17-0.2 0.277s-0.065 0.222-0.065 0.342c0 0.18 0.049 0.335 0.147 0.466s0.229 0.248 0.394 0.35c0.165 0.103 0.351 0.198 0.56 0.287 0.207 0.090 0.42 0.185 0.637 0.284 0.217 0.101 0.429 0.214 0.637 0.341s0.395 0.279 0.557 0.456 0.293 0.385 0.394 0.624c0.1 0.24 0.149 0.521 0.149 0.847 0 0.425-0.078 0.797-0.236 1.118s-0.373 0.588-0.645 0.802c-0.271 0.215-0.587 0.376-0.949 0.484-0.046 0.014-0.096 0.020-0.143 0.031v1.092h-0.983v-0.963c-0.013 0-0.024 0.002-0.036 0.002-0.279 0-0.539-0.022-0.778-0.067s-0.451-0.101-0.634-0.164c-0.184-0.064-0.336-0.131-0.459-0.201s-0.211-0.132-0.265-0.186c-0.054-0.054-0.093-0.132-0.116-0.234-0.023-0.103-0.035-0.249-0.035-0.441 0-0.129 0.004-0.237 0.013-0.325s0.022-0.158 0.041-0.213 0.043-0.093 0.075-0.116c0.031-0.022 0.067-0.034 0.109-0.034 0.058 0 0.14 0.034 0.247 0.103s0.243 0.145 0.409 0.228c0.167 0.084 0.365 0.159 0.597 0.229 0.231 0.068 0.499 0.103 0.803 0.103 0.2 0 0.379-0.024 0.537-0.072s0.293-0.115 0.403-0.203 0.194-0.196 0.253-0.325c0.059-0.13 0.088-0.273 0.088-0.433 0-0.183-0.051-0.34-0.15-0.472-0.1-0.131-0.23-0.247-0.391-0.35-0.16-0.102-0.342-0.197-0.546-0.287s-0.414-0.185-0.631-0.284c-0.216-0.1-0.427-0.213-0.631-0.341s-0.386-0.278-0.546-0.455-0.291-0.387-0.39-0.628c-0.1-0.241-0.15-0.531-0.15-0.868 0-0.388 0.072-0.728 0.215-1.021s0.337-0.537 0.581-0.73 0.531-0.338 0.862-0.434c0.17-0.050 0.346-0.085 0.526-0.109v-1.034h0.983v1.034c0.039 0.005 0.078 0.003 0.117 0.009 0.191 0.029 0.371 0.068 0.537 0.118 0.167 0.049 0.314 0.104 0.444 0.167 0.129 0.062 0.214 0.113 0.256 0.155s0.069 0.076 0.085 0.105c0.014 0.029 0.026 0.068 0.037 0.116s0.018 0.108 0.021 0.182c0.004 0.072 0.006 0.163 0.006 0.271 0 0.121-0.003 0.224-0.009 0.308-0.009 0.079-0.019 0.149-0.034 0.203zM11 16c0 3.313 2.238 6 5 6h-13v-12h13c-2.762 0-5 2.687-5 6zM7 14c-0.829 0-1.5 0.896-1.5 2s0.671 2 1.5 2c0.828 0 1.5-0.896 1.5-2s-0.672-2-1.5-2z"></path>
        </symbol>
        <symbol id="icon-instagram" viewBox="0 0 33 32">
            <path d="M16.668 0c2.080 0.074 4.235 0.074 6.315 0.147 1.857 0.074 3.566 0.369 5.201 1.327 2.080 1.254 3.343 3.097 3.789 5.457 0.223 1.401 0.297 2.876 0.372 4.277 0.074 3.097 0 6.194 0 9.291 0 1.622-0.074 3.244-0.594 4.793-1.040 3.023-3.195 4.867-6.315 5.457-1.412 0.295-2.898 0.295-4.309 0.369-3.121 0.074-6.167 0-9.287 0-1.635 0-3.269-0.074-4.829-0.59-3.046-1.032-4.904-3.171-5.498-6.268-0.297-1.401-0.297-2.876-0.371-4.277-0.074-3.097 0-6.194 0-9.291 0-1.622 0.074-3.244 0.594-4.793 1.040-3.023 3.195-4.867 6.315-5.457 1.412-0.295 2.898-0.295 4.309-0.369s2.823-0.074 4.309-0.074zM29.521 15.264c-0.074 0 0 0 0 0-0.074-1.253-0.074-2.433-0.074-3.687 0-1.18-0.074-2.36-0.223-3.539-0.297-2.655-1.857-4.424-4.458-4.94-1.337-0.295-2.823-0.295-4.161-0.295-2.675-0.074-5.275-0.074-7.95 0-1.337 0-2.675 0.074-3.938 0.295-2.229 0.369-3.789 1.622-4.458 3.834-0.223 0.737-0.297 1.475-0.372 2.212-0.074 2.802-0.074 5.604-0.074 8.406 0 1.77 0.074 3.613 0.223 5.383 0.223 2.655 1.857 4.498 4.532 4.941 1.337 0.221 2.749 0.295 4.161 0.295 2.6 0.074 5.201 0 7.876 0 1.189 0 2.378-0.074 3.566-0.221 1.114-0.074 2.155-0.442 3.046-1.18 1.486-1.18 2.006-2.728 2.080-4.498 0.149-2.212 0.149-4.572 0.223-7.005z"></path>
            <path d="M24.692 15.558c0 4.424-3.566 7.964-8.024 7.964s-8.024-3.539-8.024-8.037c0-4.351 3.641-7.89 8.099-7.89 4.384 0 7.95 3.539 7.95 7.964zM16.667 20.72c2.823 0 5.201-2.36 5.201-5.162s-2.378-5.162-5.201-5.162c-2.898 0-5.201 2.36-5.201 5.162-0.074 2.802 2.303 5.162 5.201 5.162z"></path>
            <path d="M26.848 7.226c0 1.032-0.817 1.917-1.857 1.917s-1.932-0.885-1.857-1.917c0-1.032 0.817-1.843 1.857-1.843s1.857 0.811 1.857 1.843z"></path>
        </symbol>
        <symbol id="icon-linkedin" viewBox="0 0 34 32">
            <path d="M33.48 19.019v12.006h-7.064v-11.218c0-2.804-0.971-4.732-3.532-4.732-1.943 0-3.091 1.315-3.62 2.541-0.177 0.438-0.265 1.052-0.265 1.665v11.744h-7.064c0 0 0.088-19.017 0-20.945h7.064v2.98c0 0 0 0.088-0.088 0.088h0.088v-0.088c0.971-1.402 2.561-3.505 6.358-3.505 4.592 0 8.124 3.067 8.124 9.465zM4.692 0.002c-2.384 0-3.974 1.577-3.974 3.593s1.501 3.593 3.885 3.593h0.088c2.472 0 3.974-1.577 3.974-3.593-0.088-2.016-1.589-3.593-3.974-3.593zM1.073 31.025h6.976v-20.945h-6.976v20.945z"></path>
        </symbol>
        <symbol id="icon-facebook" viewBox="0 0 16 32">
            <path d="M14.212 15.519h-4.369v15.518h-6.515v-15.518h-3.066v-5.477h3.066v-3.575c0-2.51 1.226-6.466 6.515-6.466h4.829v5.325h-3.449c-0.537 0-1.38 0.304-1.38 1.521v3.195h4.905l-0.537 5.477z"></path>
        </symbol>
        <symbol id="icon-twitter" viewBox="0 0 37 32">
            <path d="M37.051 4.76c-1.363 0.592-2.726 1.015-4.26 1.184 1.533-0.93 2.726-2.368 3.237-4.059-1.448 0.846-3.067 1.437-4.686 1.776-1.363-1.437-3.323-2.368-5.452-2.368-4.089 0-7.412 3.298-7.412 7.356 0 0.592 0.085 1.184 0.17 1.691-6.219-0.338-11.672-3.213-15.335-7.695-0.682 1.099-1.022 2.368-1.022 3.72 0 2.537 1.278 4.82 3.323 6.173-1.193 0-2.385-0.338-3.408-0.93v0.085c0 3.551 2.556 6.595 5.964 7.272-0.596 0.169-1.278 0.254-1.96 0.254-0.511 0-0.937-0.085-1.363-0.169 0.937 2.959 3.663 5.073 6.986 5.158-2.556 1.945-5.708 3.129-9.201 3.129-0.596 0-1.193 0-1.789-0.085 3.323 2.114 7.157 3.298 11.416 3.298 13.717 0 21.129-11.246 21.129-20.97 0-0.338 0-0.676 0-0.93 1.448-1.099 2.726-2.452 3.663-3.89z"></path>
        </symbol>
    </defs>
</svg>
