<svg aria-hidden="true" style="position: absolute; width: 0; height: 0; overflow: hidden;" version="1.1" xmlns="http://www.w3.org/2000/svg" xmlns:xlink="http://www.w3.org/1999/xlink">
    <defs>
        <symbol id="icon-Star" viewBox="0 0 192 32">
            <path d="M13.916 1.484c0.642-1.98 3.44-1.98 4.082 0l2.296 7.064c0.288 0.884 1.112 1.484 2.040 1.484h7.43c2.080 0 2.944 2.66 1.262 3.882l-6.010 4.366c-0.539 0.395-0.885 1.025-0.885 1.737 0 0.237 0.038 0.465 0.11 0.679l-0.004-0.015 2.296 7.066c0.642 1.978-1.62 3.62-3.302 2.4l-6.010-4.368c-0.349-0.256-0.788-0.41-1.262-0.41s-0.913 0.154-1.268 0.415l0.006-0.004-6.010 4.368c-1.682 1.22-3.946-0.422-3.302-2.4l2.294-7.066c0.067-0.198 0.105-0.426 0.105-0.663 0-0.711-0.346-1.342-0.879-1.732l-0.006-0.004-6.010-4.366c-1.68-1.22-0.816-3.882 1.262-3.882h7.43c0.93 0 1.754-0.6 2.040-1.484l2.296-7.064zM53.83 1.484c0.642-1.98 3.44-1.98 4.082 0l2.296 7.064c0.288 0.884 1.112 1.484 2.042 1.484h7.428c2.080 0 2.944 2.66 1.262 3.882l-6.010 4.366c-0.539 0.395-0.885 1.025-0.885 1.737 0 0.237 0.038 0.465 0.109 0.679l-0.004-0.015 2.296 7.066c0.642 1.978-1.62 3.62-3.302 2.4l-6.010-4.368c-0.349-0.256-0.788-0.41-1.262-0.41s-0.913 0.154-1.268 0.415l0.006-0.004-6.010 4.368c-1.682 1.22-3.946-0.422-3.304-2.4l2.296-7.066c0.067-0.198 0.105-0.426 0.105-0.663 0-0.711-0.346-1.342-0.879-1.732l-0.006-0.004-6.010-4.366c-1.68-1.22-0.816-3.882 1.262-3.882h7.43c0.93 0 1.754-0.6 2.040-1.484l2.296-7.064zM93.744 1.484c0.644-1.98 3.44-1.98 4.082 0l2.296 7.064c0.288 0.884 1.112 1.484 2.042 1.484h7.43c2.080 0 2.942 2.66 1.26 3.882l-6.010 4.366c-0.539 0.395-0.885 1.025-0.885 1.737 0 0.237 0.038 0.465 0.109 0.679l-0.004-0.015 2.296 7.066c0.642 1.978-1.62 3.62-3.302 2.4l-6.010-4.368c-0.349-0.256-0.788-0.41-1.262-0.41s-0.913 0.154-1.268 0.415l0.006-0.004-6.010 4.368c-1.682 1.22-3.946-0.422-3.302-2.4l2.294-7.066c0.067-0.198 0.105-0.426 0.105-0.663 0-0.711-0.346-1.342-0.879-1.732l-0.006-0.004-6.010-4.366c-1.68-1.22-0.816-3.882 1.262-3.882h7.43c0.93 0 1.754-0.6 2.040-1.484l2.296-7.064zM133.662 1.484c0.644-1.98 3.44-1.98 4.082 0l2.296 7.064c0.288 0.884 1.112 1.484 2.042 1.484h7.428c2.080 0 2.944 2.66 1.262 3.882l-6.010 4.366c-0.539 0.395-0.885 1.025-0.885 1.737 0 0.237 0.038 0.465 0.109 0.679l-0.004-0.015 2.296 7.066c0.642 1.978-1.62 3.62-3.302 2.4l-6.010-4.368c-0.349-0.256-0.788-0.41-1.262-0.41s-0.913 0.154-1.268 0.415l0.006-0.004-6.010 4.368c-1.682 1.22-3.946-0.422-3.302-2.4l2.294-7.066c0.067-0.198 0.105-0.426 0.105-0.663 0-0.711-0.346-1.342-0.879-1.732l-0.006-0.004-6.010-4.366c-1.68-1.22-0.816-3.882 1.262-3.882h7.43c0.93 0 1.754-0.6 2.040-1.484l2.296-7.064zM173.576 1.484c0.644-1.98 3.44-1.98 4.082 0l2.296 7.064c0.288 0.884 1.112 1.484 2.042 1.484h7.43c2.080 0 2.942 2.66 1.26 3.882l-6.010 4.366c-0.539 0.395-0.885 1.025-0.885 1.737 0 0.237 0.038 0.465 0.109 0.679l-0.004-0.015 2.296 7.066c0.642 1.978-1.62 3.62-3.302 2.4l-6.010-4.368c-0.349-0.256-0.788-0.41-1.262-0.41s-0.913 0.154-1.268 0.415l0.006-0.004-6.010 4.368c-1.682 1.22-3.946-0.422-3.302-2.4l2.294-7.066c0.067-0.198 0.105-0.426 0.105-0.663 0-0.711-0.346-1.342-0.879-1.732l-0.006-0.004-6.008-4.366c-1.684-1.22-0.82-3.882 1.26-3.882h7.43c0.93 0 1.754-0.6 2.040-1.484l2.296-7.064z"></path>
        </symbol>
        <symbol id="icon-Illustration-1" viewBox="0 0 48 32">
            <path stroke-linejoin="round" stroke-linecap="round" stroke-miterlimit="1.5" stroke-width="3.0286" d="M3.469 14.724c4.119-4.206 9.169-4.907 14.291-5.379 6.393-0.589 12.899-0.819 17.847-7.060"></path>
            <path stroke-linejoin="round" stroke-linecap="round" stroke-miterlimit="1.5" stroke-width="3.0286" d="M1.87 26.547c3.754-5.341 9.213-8.497 15.661-9.208 3.374-0.372 6.795-0.002 10.148-0.639 7.553-1.436 14.57-6.021 17.86-13.112"></path>
            <path stroke-linejoin="round" stroke-linecap="round" stroke-miterlimit="1.5" stroke-width="3.0286" d="M34.882 21.965c-2.501 1.604-5.215 2.825-8.195 3.175-5.935 0.697-12.152-0.228-16.659 4.574"></path>
        </symbol>
        <symbol id="icon-Illustration-2" viewBox="0 0 34 32">
            <path stroke-linejoin="round" stroke-linecap="round" stroke-miterlimit="1.5" stroke-width="2.2919" d="M23.643 26.914c2.503-5.595 4.359-11.4 6.603-17.086"></path>
            <path stroke-linejoin="round" stroke-linecap="round" stroke-miterlimit="1.5" stroke-width="2.2919" d="M6.857 30.271c6.835-7.314 12.977-15.487 18.622-23.735"></path>
            <path stroke-linejoin="round" stroke-linecap="round" stroke-miterlimit="1.5" stroke-width="2.2919" d="M1.414 13.696c6.503-2.214 14.627-8.133 20.616-11.966"></path>
        </symbol>
        <symbol id="icon-arrow-right" viewBox="0 0 32 32">
            <path d="M19.414 27.414l10-10c0.781-0.781 0.781-2.047 0-2.828l-10-10c-0.781-0.781-2.047-0.781-2.828 0s-0.781 2.047 0 2.828l6.586 6.586h-19.172c-1.105 0-2 0.895-2 2s0.895 2 2 2h19.172l-6.586 6.586c-0.39 0.39-0.586 0.902-0.586 1.414s0.195 1.024 0.586 1.414c0.781 0.781 2.047 0.781 2.828 0z"></path>
        </symbol>
        <symbol id="icon-Vector-14" viewBox="0 0 89 32">
            <path d="M88.399 3.224c0.119-0.365-0.081-0.757-0.446-0.876s-0.757 0.081-0.876 0.446l1.322 0.43zM70.406 20.008v0zM49.801 8.519v0zM55.973 1.052v0zM62.524 6.499v0zM45.045 24.956v0zM26.277 13.117v0zM30.741 7.364v0zM17.22 31.091v0zM0.72 20.836l0.158-0.677c-0.247-0.058-0.506 0.024-0.675 0.213s-0.222 0.455-0.139 0.694l0.656-0.23zM6.805 22.967c0.374 0.087 0.748-0.145 0.835-0.519s-0.145-0.748-0.519-0.835l-0.315 1.354zM2.29 27.418c0.127 0.362 0.524 0.553 0.886 0.426s0.553-0.524 0.426-0.886l-1.312 0.46zM87.738 3.009c-0.661-0.215-0.661-0.215-0.661-0.216s0-0 0 0 0 0.001-0.001 0.001-0.001 0.003-0.002 0.006-0.005 0.016-0.009 0.029c-0.009 0.026-0.023 0.066-0.041 0.118-0.037 0.105-0.093 0.262-0.171 0.464-0.154 0.403-0.388 0.985-0.708 1.691-0.641 1.413-1.621 3.315-2.981 5.274-2.728 3.933-6.917 8.006-12.867 8.945l0.217 1.373c6.487-1.023 10.964-5.449 13.792-9.525 1.419-2.045 2.439-4.025 3.106-5.493 0.333-0.735 0.578-1.343 0.741-1.77 0.081-0.213 0.142-0.382 0.183-0.498 0.020-0.058 0.036-0.103 0.046-0.134 0.005-0.016 0.009-0.028 0.012-0.036 0.002-0.004 0.003-0.008 0.004-0.010 0.001-0.001 0.001-0.002 0.001-0.003s0-0.001 0-0.001 0.001-0.001-0.66-0.216zM70.297 19.321c-4.646 0.733-9.63-0.123-13.441-2.117-3.821-1.999-6.332-5.059-6.36-8.69l-1.39 0.011c0.034 4.341 3.035 7.781 7.106 9.911 4.080 2.135 9.367 3.037 14.302 2.259l-0.217-1.373zM50.496 8.513c-0.008-1.064 0.432-2.723 1.381-4.145 0.94-1.408 2.315-2.496 4.144-2.623l-0.096-1.387c-2.387 0.165-4.107 1.594-5.204 3.238-1.088 1.631-1.626 3.559-1.615 4.928l1.39-0.011zM56.021 1.745c1.73-0.12 2.968 0.563 3.893 1.551 0.946 1.010 1.559 2.336 1.957 3.439l1.307-0.472c-0.422-1.169-1.112-2.703-2.249-3.917-1.158-1.236-2.785-2.141-5.004-1.988l0.096 1.387zM61.871 6.735c1.587 4.395-0.105 8.454-3.519 11.622-3.425 3.179-8.507 5.369-13.383 5.907l0.153 1.382c5.141-0.568 10.51-2.867 14.177-6.27 3.678-3.414 5.716-8.030 3.88-13.114l-1.307 0.472zM44.968 24.265c-4.182 0.462-8.601-0.317-12.012-2.234-3.396-1.909-5.755-4.917-5.986-8.954l-1.388 0.079c0.264 4.614 2.983 8.001 6.693 10.087 3.696 2.078 8.414 2.893 12.845 2.404l-0.153-1.382zM26.971 13.077c-0.073-1.266 0.232-2.337 0.864-3.173 0.633-0.838 1.641-1.5 3.078-1.866l-0.342-1.347c-1.679 0.427-2.984 1.237-3.845 2.375-0.861 1.14-1.231 2.549-1.143 4.091l1.388-0.079zM30.913 8.038c1.314-0.334 2.377-0.067 3.275 0.579 0.926 0.666 1.708 1.762 2.347 3.126l1.259-0.589c-0.69-1.474-1.6-2.806-2.794-3.665-1.222-0.88-2.706-1.235-4.429-0.797l0.342 1.347zM36.534 11.742c2.137 4.568-0.123 9.355-4.376 13.036-4.243 3.672-10.219 5.992-14.882 5.62l-0.11 1.386c5.123 0.408 11.453-2.105 15.902-5.955 4.439-3.841 7.258-9.265 4.726-14.676l-1.259 0.589zM17.275 30.398c-3.619-0.288-7.604-2.733-10.756-5.211-1.559-1.226-2.884-2.434-3.819-3.335-0.467-0.451-0.836-0.824-1.087-1.084-0.126-0.13-0.222-0.231-0.286-0.3-0.032-0.034-0.056-0.060-0.072-0.077-0.008-0.009-0.014-0.015-0.018-0.019-0.002-0.002-0.003-0.003-0.004-0.004s-0.001-0.001-0.001-0.001-0-0-0-0 0 0-0.513 0.469-0.513 0.469-0.513 0.469 0 0 0.001 0.001 0.001 0.001 0.002 0.002 0.003 0.003 0.006 0.006 0.012 0.013 0.021 0.022c0.018 0.019 0.044 0.048 0.079 0.084 0.069 0.073 0.17 0.179 0.3 0.314 0.261 0.27 0.641 0.655 1.121 1.118 0.959 0.925 2.319 2.166 3.925 3.428 3.178 2.497 7.444 5.18 11.505 5.503l0.11-1.386zM0.562 21.513l6.243 1.454 0.315-1.354-6.243-1.454-0.315 1.354zM0.064 21.066l2.226 6.352 1.312-0.46-2.226-6.352-1.312 0.46z"></path>
        </symbol>
        <symbol id="icon-Star-little" viewBox="0 0 31 32">
            <path d="M18.962 25.703c2.020 1.105 3.796-0.234 3.409-2.579l-0.693-4.21 2.938-2.981c1.634-1.658 0.959-3.831-1.302-4.173l-4.060-0.614-1.807-3.811c-1.012-2.135-3.209-2.158-4.223-0.019l-1.816 3.83-4.060 0.614c-2.258 0.342-2.938 2.512-1.302 4.173l2.938 2.981-0.694 4.21c-0.386 2.341 1.387 3.686 3.409 2.579l3.631-1.988 3.631 1.988z"></path>
        </symbol>
        <symbol id="icon-Bookmark" viewBox="0 0 32 32">
            <path fill="#dbd9ee" style="fill: var(--color1, #dbd9ee)" d="M31.428 15.807c0 8.639-7.004 15.643-15.643 15.643s-15.643-7.004-15.643-15.643c0-8.639 7.004-15.643 15.643-15.643s15.643 7.004 15.643 15.643z"></path>
            <path fill="#6c5fbc" style="fill: var(--color2, #6c5fbc)" d="M19.213 8.495c-2.265-0.38-4.589-0.38-6.853 0-0.827 0.139-1.486 0.774-1.652 1.597-0.76 3.773-0.801 7.655-0.122 11.443l0.277 1.542c0.085 0.476 0.665 0.666 1.015 0.333l3.338-3.171c0.32-0.304 0.822-0.304 1.143 0l3.338 3.171c0.35 0.333 0.93 0.143 1.015-0.333l0.277-1.542c0.679-3.788 0.638-7.671-0.122-11.443-0.166-0.824-0.825-1.459-1.652-1.597z"></path>
        </symbol>
        <symbol id="icon-plus" viewBox="0 0 24 24">
            <path d="M5 13h6v6c0 0.552 0.448 1 1 1s1-0.448 1-1v-6h6c0.552 0 1-0.448 1-1s-0.448-1-1-1h-6v-6c0-0.552-0.448-1-1-1s-1 0.448-1 1v6h-6c-0.552 0-1 0.448-1 1s0.448 1 1 1z"></path>
        </symbol>
        <symbol id="icon-wallet" viewBox="0 0 24 24">
            <path d="M17 7h-11c-1.654 0-3 1.346-3 3v7c0 1.654 1.346 3 3 3h11c1.654 0 3-1.346 3-3v-7c0-1.654-1.346-3-3-3zM18 17c0 0.552-0.448 1-1 1h-11c-0.552 0-1-0.448-1-1v-4h13v4zM18 11h-13v-1c0-0.552 0.448-1 1-1h11c0.552 0 1 0.448 1 1v1z"></path>
            <path d="M14 16h2c0.276 0 0.5-0.224 0.5-0.5s-0.224-0.5-0.5-0.5h-2c-0.276 0-0.5 0.224-0.5 0.5s0.224 0.5 0.5 0.5z"></path>
        </symbol>
    </defs>
</svg>
